<svg width="800" height="800" viewBox="0 0 800 800" xmlns="http://www.w3.org/2000/svg">
<path fill-rule="evenodd" clip-rule="evenodd" d="M400 800C620.914 800 800 620.914 800 400C800 179.086 620.914 0 400 0C179.086 0 0 179.086 0 400C0 620.914 179.086 800 400 800ZM349.171 454.75C347.282 459.94 349.958 465.678 355.147 467.567L383.338 477.828C388.528 479.717 394.267 477.041 396.155 471.851L450.879 321.5C452.768 316.311 450.092 310.572 444.902 308.683L416.711 298.423C411.521 296.534 405.783 299.209 403.895 304.399L349.171 454.75ZM268.382 632.86C237.243 621.526 221.188 587.096 232.521 555.957L276.983 433.797C288.317 402.658 322.748 386.603 353.887 397.937L363.283 401.357L346.183 448.342L336.785 444.921C331.596 443.032 325.857 445.708 323.969 450.898L279.506 573.058C277.617 578.248 280.293 583.986 285.482 585.875L304.276 592.716C340.604 605.938 380.773 587.207 393.996 550.879L417.938 485.1C419.826 479.91 417.15 474.172 411.961 472.283L402.564 468.863L419.665 421.878L429.062 425.298C460.2 436.632 476.256 471.062 464.922 502.201L440.98 567.979C418.313 630.257 349.453 662.367 287.176 639.7L268.382 632.86ZM326.577 297.542C315.243 328.68 331.299 363.111 362.438 374.444L371.834 377.865L388.935 330.88L379.538 327.46C374.349 325.571 371.673 319.832 373.562 314.643L418.024 192.483C419.913 187.293 425.651 184.617 430.841 186.506L506.017 213.867C511.206 215.756 513.882 221.495 511.993 226.685L488.052 292.463C481.528 310.386 468.446 324.025 452.503 331.658L431.938 388.161C477.241 384.473 518.473 355.073 535.036 309.564L558.978 243.786C570.312 212.647 554.256 178.216 523.117 166.883L447.942 139.521C416.804 128.188 382.373 144.243 371.039 175.382L326.577 297.542Z"/>
</svg>
